<svg style="display:none">
	<symbol id="Play" viewBox="0 0 32 32" fill="none" xmlns="http://www.w3.org/2000/svg"><path d="M18.5169 13.2462C19.9501 14.4154 20.6667 15 20.6667 15.9998C20.6667 16.9997 19.9501 17.5842 18.5169 18.7534C18.1213 19.0762 17.7289 19.3801 17.3682 19.6333C17.0518 19.8554 16.6935 20.0852 16.3226 20.3108C14.8927 21.1802 14.1778 21.615 13.5366 21.1337C12.8954 20.6524 12.8371 19.6446 12.7206 17.6294C12.6876 17.0594 12.6667 16.5008 12.6667 15.9998C12.6667 15.4989 12.6876 14.9402 12.7206 14.3702C12.8371 12.355 12.8954 11.3473 13.5366 10.866C14.1778 10.3846 14.8927 10.8194 16.3226 11.6889C16.6935 11.9145 17.0518 12.1442 17.3682 12.3664C17.7289 12.6196 18.1213 12.9235 18.5169 13.2462Z" stroke="white" stroke-width="2"/><path d="M9.33341 4.45026C11.2946 3.3158 13.5715 2.6665 16.0001 2.6665C23.3638 2.6665 29.3334 8.63604 29.3334 15.9998C29.3334 23.3636 23.3638 29.3332 16.0001 29.3332C8.63628 29.3332 2.66675 23.3636 2.66675 15.9998C2.66675 13.5713 3.31604 11.2943 4.45051 9.33317" stroke="white" stroke-width="2" stroke-linecap="round"/></symbol>
	<symbol id="Text" viewBox="0 0 32 32" fill="none" xmlns="http://www.w3.org/2000/svg"><path d="M12 12H20" stroke="white" stroke-width="2" stroke-linecap="round"/><path d="M16 20V12" stroke="white" stroke-width="2" stroke-linecap="round"/><path d="M7.99984 5.33366C7.99984 6.80642 6.80593 8.00033 5.33317 8.00033C3.86041 8.00033 2.6665 6.80642 2.6665 5.33366C2.6665 3.8609 3.86041 2.66699 5.33317 2.66699C6.80593 2.66699 7.99984 3.8609 7.99984 5.33366Z" stroke="white" stroke-width="2"/><path d="M7.99984 26.6667C7.99984 28.1395 6.80593 29.3333 5.33317 29.3333C3.86041 29.3333 2.6665 28.1395 2.6665 26.6667C2.6665 25.1939 3.86041 24 5.33317 24C6.80593 24 7.99984 25.1939 7.99984 26.6667Z" stroke="white" stroke-width="2"/><path d="M29.3333 5.33366C29.3333 6.80642 28.1395 8.00033 26.6667 8.00033C25.1939 8.00033 24 6.80642 24 5.33366C24 3.8609 25.1939 2.66699 26.6667 2.66699C28.1395 2.66699 29.3333 3.8609 29.3333 5.33366Z" stroke="white" stroke-width="2"/><path d="M29.3333 26.6667C29.3333 28.1395 28.1395 29.3333 26.6667 29.3333C25.1939 29.3333 24 28.1395 24 26.6667C24 25.1939 25.1939 24 26.6667 24C28.1395 24 29.3333 25.1939 29.3333 26.6667Z" stroke="white" stroke-width="2"/><path d="M24 5.33301H8" stroke="white" stroke-width="2" stroke-linecap="round"/><path d="M26.6665 24V16M26.6665 8V10.6667" stroke="white" stroke-width="2" stroke-linecap="round"/><path d="M24 26.667H16M8 26.667H10.6667" stroke="white" stroke-width="2" stroke-linecap="round"/><path d="M5.3335 8V24" stroke="white" stroke-width="2" stroke-linecap="round"/></symbol>
	<symbol id="Camera" viewBox="0 0 32 32" fill="none" xmlns="http://www.w3.org/2000/svg"><path d="M19.3597 14.2399L18.9863 13.8667C17.3369 12.2172 14.6626 12.2172 13.0132 13.8667C11.3638 15.516 11.3638 18.1903 13.0132 19.8397C14.6626 21.4892 17.3369 21.4892 18.9863 19.8397C19.6887 19.1373 20.0921 18.2491 20.1962 17.3333M19.3597 14.2399L17.3334 14.6667M19.3597 14.2399V12" stroke="white" stroke-width="2" stroke-linecap="round" stroke-linejoin="round"/><path d="M2.66675 17.8181C2.66675 13.7325 2.66675 11.6896 3.66544 10.2221C4.09779 9.58685 4.65335 9.04139 5.3004 8.61691C6.26081 7.98684 7.46319 7.76164 9.30408 7.68115C10.1825 7.68115 10.9389 7.02757 11.1112 6.18181C11.3696 4.91319 12.5041 4 13.8218 4H18.1783C19.4959 4 20.6305 4.91319 20.889 6.18181C21.0613 7.02757 21.8175 7.68115 22.6961 7.68115C24.537 7.76164 25.7393 7.98684 26.6998 8.61691C27.3467 9.04139 27.9023 9.58685 28.3347 10.2221C29.3334 11.6896 29.3334 13.7325 29.3334 17.8181C29.3334 21.9039 29.3334 23.9468 28.3347 25.4143C27.9023 26.0495 27.3467 26.5949 26.6998 27.0195C25.2051 28 23.1245 28 18.963 28H13.0371C8.87575 28 6.79507 28 5.3004 27.0195C4.65335 26.5949 4.09779 26.0495 3.66544 25.4143C3.38336 24.9997 3.18096 24.5393 3.03572 24" stroke="white" stroke-width="2" stroke-linecap="round"/></symbol>
	<symbol id="Rocket" viewBox="0 0 32 32" fill="none" xmlns="http://www.w3.org/2000/svg"><path d="M19.9184 2.03713C19.408 2.24795 19.1651 2.83265 19.3759 3.34313C19.5867 3.8536 20.1714 4.09652 20.6819 3.88571L19.9184 2.03713ZM10.316 20.2149C9.92487 20.6048 9.92391 21.238 10.3139 21.6292C10.7038 22.0202 11.337 22.0212 11.7281 21.6312L10.316 20.2149ZM14.4747 18.8928C14.8659 18.5028 14.8668 17.8697 14.4768 17.4785C14.087 17.0874 13.4538 17.0865 13.0627 17.4764L14.4747 18.8928ZM17.3727 6.87525C17.7639 6.48532 17.7648 5.85215 17.3748 5.46104C16.985 5.06993 16.3518 5.06897 15.9607 5.45892L17.3727 6.87525ZM26.3519 13.3553L18.556 21.1277L19.9682 22.5441L27.764 14.7717L26.3519 13.3553ZM12.6436 21.1277L10.8125 19.3021L9.40041 20.7184L11.2316 22.5441L12.6436 21.1277ZM23.3956 3.66663H24.1542V1.66663H23.3956V3.66663ZM28.3334 7.83032V8.58653H30.3334V7.83032H28.3334ZM24.1542 3.66663C25.4031 3.66663 26.2395 3.66873 26.8628 3.75229C27.4576 3.83203 27.7064 3.96913 27.8688 4.131L29.281 2.71467C28.6848 2.12033 27.944 1.87933 27.1286 1.77001C26.3415 1.66452 25.3467 1.66663 24.1542 1.66663V3.66663ZM30.3334 7.83032C30.3334 6.64159 30.3355 5.64913 30.2296 4.86369C30.1198 4.04919 29.8775 3.30941 29.281 2.71467L27.8688 4.131C28.0308 4.29245 28.1678 4.53935 28.2475 5.13097C28.3312 5.75169 28.3334 6.58488 28.3334 7.83032H30.3334ZM10.8125 19.3021C9.92926 18.4214 9.33961 17.8306 8.95838 17.3325C8.59473 16.8573 8.51685 16.5862 8.51685 16.3589H6.51685C6.51685 17.2012 6.87055 17.8952 7.3701 18.548C7.85209 19.1777 8.55725 19.8778 9.40041 20.7184L10.8125 19.3021ZM11.2316 22.5441C12.0748 23.3848 12.7769 24.0877 13.4084 24.5682C14.0632 25.0662 14.7579 25.4177 15.5999 25.4177V23.4177C15.3691 23.4177 15.0959 23.3389 14.6194 22.9764C14.1195 22.5962 13.5268 22.0082 12.6436 21.1277L11.2316 22.5441ZM27.764 14.7717C28.8287 13.7101 29.5712 12.9948 29.9611 12.0564L28.1142 11.2891C27.9127 11.7741 27.5326 12.1782 26.3519 13.3553L27.764 14.7717ZM28.3334 8.58653C28.3334 10.2513 28.3156 10.8044 28.1142 11.2891L29.9611 12.0564C30.3511 11.1177 30.3334 10.0877 30.3334 8.58653H28.3334ZM23.3956 1.66663C21.8892 1.66663 20.8583 1.64901 19.9184 2.03713L20.6819 3.88571C21.1698 3.68424 21.7264 3.66663 23.3956 3.66663V1.66663ZM11.7281 21.6312L14.4747 18.8928L13.0627 17.4764L10.316 20.2149L11.7281 21.6312ZM18.556 21.1277C17.8743 21.8074 17.3614 22.3181 16.9206 22.6988C16.4782 23.0808 16.18 23.2672 15.9462 23.3533L16.6374 25.2301C17.2079 25.02 17.7224 24.6489 18.2278 24.2124C18.735 23.7744 19.305 23.2053 19.9682 22.5441L18.556 21.1277ZM15.9462 23.3533C15.823 23.3988 15.713 23.4177 15.5999 23.4177V25.4177C15.9608 25.4177 16.3043 25.3528 16.6374 25.2301L15.9462 23.3533ZM9.40041 11.9995C8.75311 12.6449 8.19425 13.2013 7.76035 13.6965C7.32825 14.1897 6.95869 14.6889 6.73834 15.2369L8.59393 15.983C8.68857 15.7477 8.88323 15.4498 9.26457 15.0146C9.64411 14.5814 10.1479 14.0784 10.8125 13.4158L9.40041 11.9995ZM6.73834 15.2369C6.59447 15.5946 6.51685 15.9657 6.51685 16.3589H8.51685C8.51685 16.2388 8.53874 16.1202 8.59393 15.983L6.73834 15.2369ZM10.8125 13.4158L17.3727 6.87525L15.9607 5.45892L9.40041 11.9995L10.8125 13.4158Z" fill="white"/><path d="M7.43109 15.3756L8.13819 14.6684L8.13714 14.6673L7.43109 15.3756ZM13.2261 9.8965C13.6905 10.1954 14.3093 10.0612 14.6081 9.59682C14.9071 9.13242 14.7729 8.51364 14.3085 8.21473L13.2261 9.8965ZM3.60086 13.5589C4.11151 13.7693 4.69602 13.5259 4.90641 13.0153C5.11679 12.5046 4.87338 11.9201 4.36274 11.7097L3.60086 13.5589ZM6.95897 16.3176C7.34949 16.7081 7.98266 16.7081 8.37318 16.3176C8.7637 15.9271 8.7637 15.294 8.37318 14.9035L6.95897 16.3176ZM7.49665 14.0288C7.10553 13.6388 6.47237 13.6399 6.08243 14.0309C5.6925 14.422 5.69345 15.0552 6.08455 15.4452L7.49665 14.0288ZM14.3085 8.21473L13.4696 7.67477L12.3871 9.35654L13.2261 9.8965L14.3085 8.21473ZM13.4696 7.67477C12.641 7.14149 11.9722 6.71025 11.3967 6.4001C10.8085 6.08318 10.2576 5.85841 9.64838 5.76838L9.35599 7.74689C9.64853 7.79012 9.96918 7.90277 10.448 8.16076C10.9393 8.42552 11.5328 8.80665 12.3871 9.35654L13.4696 7.67477ZM3.67289 11.4064C4.42363 10.6579 5.22889 9.85536 5.95254 9.19521C6.3141 8.86537 6.64335 8.58212 6.92578 8.36444C7.2237 8.13481 7.41267 8.02306 7.50243 7.98582L6.73597 6.13852C6.39298 6.28084 6.03325 6.52722 5.70483 6.78036C5.36094 7.04542 4.98627 7.3695 4.60463 7.71765C3.8419 8.41346 3.00373 9.24938 2.26082 9.99004L3.67289 11.4064ZM9.64838 5.76838C8.66881 5.62361 7.66159 5.75446 6.73597 6.13852L7.50243 7.98582C8.10333 7.7365 8.74513 7.65661 9.35599 7.74689L9.64838 5.76838ZM2.94427 13.2982L3.44913 13.4983L4.18589 11.6389L3.68103 11.4389L2.94427 13.2982ZM3.44913 13.4983C3.53395 13.5319 3.56794 13.5453 3.60086 13.5589L4.36274 11.7097C4.31443 11.6898 4.26595 11.6706 4.18589 11.6389L3.44913 13.4983ZM2.26082 9.99004C1.2291 11.0186 1.59287 12.7627 2.94427 13.2982L3.68103 11.4389C3.6751 11.4365 3.67269 11.4348 3.67231 11.4345C3.67249 11.4347 3.67181 11.4341 3.67231 11.4345C3.67169 11.4337 3.66859 11.4296 3.66734 11.4236C3.66609 11.4176 3.66691 11.4139 3.66703 11.4134C3.66687 11.4137 3.66705 11.4134 3.66703 11.4134C3.66711 11.4133 3.66857 11.4107 3.67289 11.4064L2.26082 9.99004ZM6.72398 16.0827L6.95897 16.3176L8.37318 14.9035L8.13819 14.6684L6.72398 16.0827ZM6.08455 15.4452L6.72505 16.0837L8.13714 14.6673L7.49665 14.0288L6.08455 15.4452Z" fill="white"/><path d="M16.666 24.6667L15.9588 25.3739C15.9743 25.3894 15.9903 25.4043 16.0067 25.4187L16.666 24.6667ZM23.7644 17.6426C23.4643 17.179 22.8451 17.0466 22.3815 17.3467C21.9179 17.6469 21.7855 18.2661 22.0856 18.7297L23.7644 17.6426ZM20.5936 28.3961C20.3891 27.883 19.8074 27.6329 19.2945 27.8374C18.7814 28.0419 18.5312 28.6237 18.7358 29.1366L20.5936 28.3961ZM16.7039 26.0299C17.1192 26.3941 17.751 26.3526 18.1151 25.9373C18.4792 25.5221 18.4376 24.8902 18.0224 24.5262L16.7039 26.0299ZM16.9982 23.5847C16.6076 23.1942 15.9744 23.1942 15.5839 23.5847C15.1934 23.9753 15.1934 24.6085 15.5839 24.999L16.9982 23.5847ZM22.0856 18.7297L22.6272 19.5661L24.306 18.479L23.7644 17.6426L22.0856 18.7297ZM20.5715 28.2461L20.4594 28.3578L21.8715 29.7741L21.9836 29.6623L20.5715 28.2461ZM22.6272 19.5661C23.1788 20.4179 23.561 21.0095 23.8265 21.4991C24.0851 21.9763 24.1976 22.2951 24.2408 22.5855L26.2191 22.2914C26.1286 21.6827 25.9027 21.1326 25.5847 20.5461C25.2735 19.9719 24.8408 19.3051 24.306 18.479L22.6272 19.5661ZM21.9836 29.6623C22.7264 28.9217 23.5648 28.0859 24.2628 27.3255C24.612 26.945 24.9371 26.5715 25.203 26.2286C25.4569 25.9011 25.7043 25.5422 25.8474 25.1995L24.0016 24.4291C23.9646 24.5178 23.8529 24.7059 23.6225 25.003C23.4042 25.2845 23.1202 25.6127 22.7892 25.9733C22.1271 26.6947 21.3222 27.4975 20.5715 28.2461L21.9836 29.6623ZM24.2408 22.5855C24.3311 23.1929 24.2512 23.8311 24.0016 24.4291L25.8474 25.1995C26.233 24.2755 26.3646 23.2698 26.2191 22.2914L24.2408 22.5855ZM18.0224 24.5262L17.3252 23.9149L16.0067 25.4187L16.7039 26.0299L18.0224 24.5262ZM20.4594 28.3578C20.4679 28.3494 20.4819 28.3407 20.4972 28.3363C20.5103 28.3326 20.5202 28.3331 20.5271 28.3345C20.534 28.3358 20.5455 28.3397 20.5591 28.3506C20.5748 28.3631 20.5874 28.3803 20.5936 28.3961L18.7358 29.1366C19.2476 30.4207 20.9117 30.7311 21.8715 29.7741L20.4594 28.3578ZM17.3731 23.9597L16.9982 23.5847L15.5839 24.999L15.9588 25.3739L17.3731 23.9597Z" fill="white"/><path d="M18.5561 14.1718C18.9471 14.5618 19.5803 14.5608 19.9703 14.1696C20.3602 13.7786 20.3593 13.1454 19.9682 12.7555L18.5561 14.1718ZM22.2183 12.7555C21.8273 13.1454 21.8263 13.7786 22.2162 14.1696C22.6062 14.5608 23.2393 14.5618 23.6305 14.1718L22.2183 12.7555ZM23.6305 9.10419C22.2289 7.70681 19.9577 7.70681 18.5561 9.10419L19.9682 10.5205C20.5893 9.90137 21.5973 9.90137 22.2183 10.5205L23.6305 9.10419ZM18.5561 9.10419C17.1529 10.5032 17.1529 12.7728 18.5561 14.1718L19.9682 12.7555C19.3489 12.138 19.3489 11.138 19.9682 10.5205L18.5561 9.10419ZM23.6305 14.1718C25.0337 12.7728 25.0337 10.5032 23.6305 9.10419L22.2183 10.5205C22.8377 11.138 22.8377 12.138 22.2183 12.7555L23.6305 14.1718Z" fill="white"/></symbol>
	<symbol id="Ajust" viewBox="0 0 32 32" fill="none" xmlns="http://www.w3.org/2000/svg"><path d="M12.6667 18.6665C14.8759 18.6665 16.6667 20.4573 16.6667 22.6665C16.6667 24.8756 14.8759 26.6665 12.6667 26.6665C10.4576 26.6665 8.66675 24.8756 8.66675 22.6665C8.66675 20.4573 10.4576 18.6665 12.6667 18.6665Z" stroke="white" stroke-width="2"/><path d="M19.3333 5.3335C17.1241 5.3335 15.3333 7.12435 15.3333 9.3335C15.3333 11.5426 17.1241 13.3335 19.3333 13.3335C21.5425 13.3335 23.3333 11.5426 23.3333 9.3335C23.3333 7.12435 21.5425 5.3335 19.3333 5.3335Z" stroke="white" stroke-width="2"/><path d="M14.6669 9.33351L8.00022 9.3335M4.00011 9.33351H2.66675" stroke="white" stroke-width="2" stroke-linecap="round"/><path d="M17.3333 22.6665H23.9999M28.0001 22.6665H29.3334" stroke="white" stroke-width="2" stroke-linecap="round"/><path d="M2.66675 22.6665H8.00008" stroke="white" stroke-width="2" stroke-linecap="round"/><path d="M29.3333 9.3335H24" stroke="white" stroke-width="2" stroke-linecap="round"/></symbol>
	<symbol id="Desktop" viewBox="0 0 32 32" fill="none" xmlns="http://www.w3.org/2000/svg"><path d="M6.66675 3.00252C5.63408 3.2273 4.85499 3.60246 4.22884 4.2286C2.66675 5.7907 2.66675 8.30485 2.66675 13.3332V14.6665C2.66675 18.4377 2.66675 20.3233 3.83832 21.4949C5.00989 22.6665 6.89551 22.6665 10.6667 22.6665H21.3334C25.1046 22.6665 26.9902 22.6665 28.1618 21.4949C29.3334 20.3233 29.3334 18.4377 29.3334 14.6665V13.3332C29.3334 8.30485 29.3334 5.7907 27.7713 4.2286C26.2093 2.6665 23.695 2.6665 18.6667 2.6665H13.3334C12.8678 2.6665 12.4238 2.6665 12.0001 2.66774" stroke="white" stroke-width="2" stroke-linecap="round"/><path d="M21.3334 29.3335H10.6667" stroke="white" stroke-width="2" stroke-linecap="round"/><path d="M16 22.6665V29.3332" stroke="white" stroke-width="2" stroke-linecap="round"/><path d="M29.3334 17.3335H21.3334M2.66675 17.3335H16.0001" stroke="white" stroke-width="2" stroke-linecap="round"/></symbol>
	<symbol id="Arrow" viewBox="0 0 32 32" fill="none" xmlns="http://www.w3.org/2000/svg"><path d="M5.33325 16H8.66659M26.6666 16L18.6666 8M26.6666 16L18.6666 24M26.6666 16H12.6666" stroke="#EFC21E" stroke-width="2" stroke-linecap="round" stroke-linejoin="round"/></symbol>
	<symbol id="Clock" viewBox="0 0 32 32" fill="none" xmlns="http://www.w3.org/2000/svg"><path d="M16 12V17.3333L19.3333 20.6667" stroke="white" stroke-width="2" stroke-linecap="round" stroke-linejoin="round"/><path d="M4.66675 5.99984L10.0001 2.6665" stroke="white" stroke-width="2" stroke-linecap="round" stroke-linejoin="round"/><path d="M27.3333 5.99984L22 2.6665" stroke="white" stroke-width="2" stroke-linecap="round" stroke-linejoin="round"/><path d="M10 6.93888C11.765 5.91786 13.8143 5.3335 16 5.3335C22.6275 5.3335 28 10.7061 28 17.3335C28 23.961 22.6275 29.3335 16 29.3335C9.37259 29.3335 4 23.961 4 17.3335C4 15.1478 4.58436 13.0985 5.60539 11.3335" stroke="white" stroke-width="2" stroke-linecap="round"/></symbol>
	<symbol id="Star" viewBox="0 0 32 32" fill="none" xmlns="http://www.w3.org/2000/svg"><path d="M8.05256 10.363C4.77299 11.1051 3.1332 11.4761 2.74307 12.7306C2.35293 13.9851 3.47084 15.2925 5.70664 17.9069L6.28507 18.5833C6.92041 19.3262 7.23808 19.6977 7.38099 20.1573C7.52391 20.6169 7.47588 21.1125 7.37981 22.1038L7.29237 23.0062C6.95435 26.4945 6.78533 28.2386 7.80671 29.0139C8.82808 29.7893 10.3634 29.0823 13.4341 27.6686L14.2285 27.3027C15.101 26.901 15.5373 26.7001 15.9998 26.7001C16.4624 26.7001 16.8986 26.901 17.7712 27.3027L18.5656 27.6686C21.6362 29.0823 23.1716 29.7893 24.193 29.0139C25.2144 28.2386 25.0453 26.4945 24.7073 23.0062M26.293 17.9069C28.5289 15.2925 29.6468 13.9851 29.2566 12.7306C28.8665 11.4761 27.2266 11.1051 23.9472 10.363L23.0986 10.1711C22.1666 9.96019 21.7008 9.85477 21.3266 9.57074C20.9524 9.28671 20.7125 8.85623 20.2325 7.9953L19.7956 7.21149C18.1068 4.18182 17.2624 2.66699 15.9998 2.66699C14.7373 2.66699 13.8929 4.18183 12.2041 7.2115" stroke="white" stroke-width="2" stroke-linecap="round"/></symbol>
	<symbol id="Dollar" viewBox="0 0 32 32" fill="none" xmlns="http://www.w3.org/2000/svg"><path d="M16 8V24" stroke="white" stroke-width="2" stroke-linecap="round"/><path d="M20 12.6668C20 10.8259 18.2092 9.3335 16 9.3335C13.7908 9.3335 12 10.8259 12 12.6668C12 14.5078 13.7908 16.0002 16 16.0002C18.2092 16.0002 20 17.4926 20 19.3335C20 21.1744 18.2092 22.6668 16 22.6668C13.7908 22.6668 12 21.1744 12 19.3335" stroke="white" stroke-width="2" stroke-linecap="round"/><path d="M9.33341 4.45026C11.2946 3.3158 13.5715 2.6665 16.0001 2.6665C23.3638 2.6665 29.3334 8.63604 29.3334 15.9998C29.3334 23.3636 23.3638 29.3332 16.0001 29.3332C8.63628 29.3332 2.66675 23.3636 2.66675 15.9998C2.66675 13.5713 3.31604 11.2943 4.45051 9.33317" stroke="white" stroke-width="2" stroke-linecap="round"/></symbol>
	<symbol id="ArrowDown" viewBox="0 0 32 32" fill="none" xmlns="http://www.w3.org/2000/svg"><path d="M25.3332 20L15.9998 12L13.6665 14M6.6665 20L9.77761 17.3333" stroke="#FFFFFF" stroke-width="2" stroke-linecap="round" stroke-linejoin="round"/></symbol>
	<symbol id="Customization" viewBox="0 0 32 32" fill="none" xmlns="http://www.w3.org/2000/svg"><path d="M12.6667 18.6665C14.8759 18.6665 16.6667 20.4573 16.6667 22.6665C16.6667 24.8756 14.8759 26.6665 12.6667 26.6665C10.4576 26.6665 8.66675 24.8756 8.66675 22.6665C8.66675 20.4573 10.4576 18.6665 12.6667 18.6665Z" stroke="#D85F44" stroke-width="2"/><path d="M19.3333 5.3335C17.1241 5.3335 15.3333 7.12435 15.3333 9.3335C15.3333 11.5426 17.1241 13.3335 19.3333 13.3335C21.5425 13.3335 23.3333 11.5426 23.3333 9.3335C23.3333 7.12435 21.5425 5.3335 19.3333 5.3335Z" stroke="#D85F44" stroke-width="2"/><path d="M14.6669 9.33351L8.00022 9.3335M4.00011 9.33351H2.66675" stroke="#D85F44" stroke-width="2" stroke-linecap="round"/><path d="M17.3333 22.6665H23.9999M28.0001 22.6665H29.3334" stroke="#D85F44" stroke-width="2" stroke-linecap="round"/><path d="M2.66675 22.6665H8.00008" stroke="#D85F44" stroke-width="2" stroke-linecap="round"/><path d="M29.3333 9.3335H24" stroke="#D85F44" stroke-width="2" stroke-linecap="round"/></symbol>
	<symbol id="Responsive" viewBox="0 0 32 32" fill="none" xmlns="http://www.w3.org/2000/svg"><path d="M14.6665 22.667H10.6665C6.89526 22.667 5.00965 22.667 3.83808 21.4954C2.6665 20.3238 2.6665 18.4382 2.6665 14.667V13.3337C2.6665 8.30534 2.6665 5.79119 4.2286 4.22909C4.85474 3.60295 5.63384 3.22779 6.6665 3.00301M29.3332 11.3337C29.3332 8.22082 29.3332 6.66439 28.7034 5.48621C28.2062 4.55593 27.4442 3.79399 26.514 3.29674C25.3357 2.66699 23.7793 2.66699 20.6665 2.66699H13.3332C12.8676 2.66699 12.4236 2.66699 11.9998 2.66823" stroke="#D85F44" stroke-width="2" stroke-linecap="round"/><path d="M18.6665 20.0003C18.6665 17.4862 18.6665 16.2291 19.4476 15.4481C20.2286 14.667 21.4857 14.667 23.9998 14.667C26.514 14.667 27.771 14.667 28.5521 15.4481C29.3332 16.2291 29.3332 17.4862 29.3332 20.0003V24.0003C29.3332 26.5145 29.3332 27.7715 28.5521 28.5526C27.771 29.3337 26.514 29.3337 23.9998 29.3337C21.4857 29.3337 20.2286 29.3337 19.4476 28.5526C18.6665 27.7715 18.6665 26.5145 18.6665 24.0003V20.0003Z" stroke="#D85F44" stroke-width="2"/><path d="M25.3332 26.667H22.6665" stroke="#D85F44" stroke-width="2" stroke-linecap="round"/><path d="M14.6665 29.3337V30.3337C15.2188 30.3337 15.6665 29.8859 15.6665 29.3337H14.6665ZM10.6665 28.3337C10.1142 28.3337 9.6665 28.7814 9.6665 29.3337C9.6665 29.8859 10.1142 30.3337 10.6665 30.3337V28.3337ZM15.6665 22.667C15.6665 22.1147 15.2188 21.667 14.6665 21.667C14.1142 21.667 13.6665 22.1147 13.6665 22.667H15.6665ZM14.6665 28.3337H10.6665V30.3337H14.6665V28.3337ZM15.6665 29.3337V22.667H13.6665V29.3337H15.6665Z" fill="#D85F44"/><path d="M14.6665 17.333H2.6665" stroke="#D85F44" stroke-width="2" stroke-linecap="round"/></symbol>
	<symbol id="Site" viewBox="0 0 32 32" fill="none" xmlns="http://www.w3.org/2000/svg"><path d="M9.33341 7.99984C9.33341 8.73621 8.73645 9.33317 8.00008 9.33317C7.26371 9.33317 6.66675 8.73621 6.66675 7.99984C6.66675 7.26346 7.26371 6.6665 8.00008 6.6665C8.73645 6.6665 9.33341 7.26346 9.33341 7.99984Z" fill="#D85F44"/><path d="M13.3334 7.99984C13.3334 8.73621 12.7365 9.33317 12.0001 9.33317C11.2637 9.33317 10.6667 8.73621 10.6667 7.99984C10.6667 7.26346 11.2637 6.6665 12.0001 6.6665C12.7365 6.6665 13.3334 7.26346 13.3334 7.99984Z" fill="#D85F44"/><path d="M17.3334 7.99984C17.3334 8.73621 16.7365 9.33317 16.0001 9.33317C15.2637 9.33317 14.6667 8.73621 14.6667 7.99984C14.6667 7.26346 15.2637 6.6665 16.0001 6.6665C16.7365 6.6665 17.3334 7.26346 17.3334 7.99984Z" fill="#D85F44"/><path d="M2.66675 12.6665H29.3334" stroke="#D85F44" stroke-width="2" stroke-linecap="round"/><path d="M12 28.0002V13.3335" stroke="#D85F44" stroke-width="2" stroke-linecap="round"/><path d="M2.66675 15.9998C2.66675 9.71445 2.66675 6.57174 4.61937 4.61913C6.57199 2.6665 9.71468 2.6665 16.0001 2.6665C22.2854 2.6665 25.4282 2.6665 27.3807 4.61913C29.3334 6.57174 29.3334 9.71445 29.3334 15.9998C29.3334 22.2852 29.3334 25.428 27.3807 27.3805C25.4282 29.3332 22.2854 29.3332 16.0001 29.3332C9.71468 29.3332 6.57199 29.3332 4.61937 27.3805C3.32105 26.0822 2.886 24.2577 2.74021 21.3332" stroke="#D85F44" stroke-width="2" stroke-linecap="round"/></symbol>
	<symbol id="Support" viewBox="0 0 32 32" fill="none" xmlns="http://www.w3.org/2000/svg"><path d="M1.66675 13.9998C1.66675 14.5521 2.11447 14.9998 2.66675 14.9998C3.21903 14.9998 3.66675 14.5521 3.66675 13.9998H1.66675ZM4.09809 20.835C3.88675 20.3248 3.30177 20.0825 2.79153 20.2938C2.28129 20.5052 2.03899 21.0901 2.25033 21.6004L4.09809 20.835ZM18.3095 29.0261L19.0323 27.805L17.3111 26.7862L16.5883 28.0074L18.3095 29.0261ZM12.9678 27.805L13.6906 29.0261L15.4117 28.0074L14.6889 26.7862L12.9678 27.805ZM16.5883 28.0074C16.3314 28.4416 15.6687 28.4416 15.4117 28.0074L13.6906 29.0261C14.7221 30.7688 17.2781 30.7688 18.3095 29.0261L16.5883 28.0074ZM14.0001 3.6665H18.0001V1.6665H14.0001V3.6665ZM28.3334 13.9998V15.3332H30.3334V13.9998H28.3334ZM10.4034 24.322C8.72949 24.293 7.85239 24.1866 7.16487 23.9018L6.39951 25.7496C7.4728 26.1941 8.69525 26.2928 10.369 26.3216L10.4034 24.322ZM2.25033 21.6004C3.02845 23.4789 4.52096 24.9714 6.39951 25.7496L7.16487 23.9018C5.77637 23.3266 4.67323 22.2236 4.09809 20.835L2.25033 21.6004ZM28.3334 15.3332C28.3334 16.9 28.3329 18.025 28.2723 18.9128C28.2123 19.7916 28.0969 20.3646 27.9021 20.835L29.7498 21.6004C30.0625 20.8457 30.2007 20.0296 30.2677 19.0489C30.3339 18.0773 30.3334 16.8726 30.3334 15.3332H28.3334ZM21.6311 26.3216C23.3049 26.2928 24.5274 26.1941 25.6006 25.7496L24.8353 23.9018C24.1478 24.1866 23.2706 24.293 21.5967 24.322L21.6311 26.3216ZM27.9021 20.835C27.3269 22.2236 26.2238 23.3266 24.8353 23.9018L25.6006 25.7496C27.4791 24.9714 28.9717 23.4789 29.7498 21.6004L27.9021 20.835ZM18.0001 3.6665C20.2017 3.6665 21.7827 3.66756 23.0159 3.78481C24.2343 3.90065 25.0095 4.12281 25.6275 4.50154L26.6726 2.79626C25.6874 2.1926 24.5699 1.92356 23.2053 1.7938C21.8554 1.66545 20.163 1.6665 18.0001 1.6665V3.6665ZM30.3334 13.9998C30.3334 11.8369 30.3345 10.1445 30.2061 8.79465C30.0763 7.42992 29.8073 6.31244 29.2037 5.32734L27.4983 6.37234C27.8771 6.99038 28.0993 7.76562 28.2151 8.98396C28.3323 10.2172 28.3334 11.7982 28.3334 13.9998H30.3334ZM25.6275 4.50154C26.3901 4.9688 27.0311 5.60986 27.4983 6.37234L29.2037 5.32734C28.5715 4.29576 27.7042 3.42842 26.6726 2.79626L25.6275 4.50154ZM14.0001 1.6665C11.8372 1.6665 10.1447 1.66545 8.79489 1.7938C7.43016 1.92356 6.31268 2.1926 5.32759 2.79626L6.37259 4.50154C6.99063 4.12281 7.76587 3.90065 8.9842 3.78481C10.2174 3.66756 11.7984 3.6665 14.0001 3.6665V1.6665ZM3.66675 13.9998C3.66675 11.7982 3.6678 10.2172 3.78506 8.98396C3.9009 7.76562 4.12305 6.99038 4.50179 6.37234L2.79651 5.32734C2.19284 6.31244 1.9238 7.42992 1.79404 8.79465C1.66569 10.1445 1.66675 11.8369 1.66675 13.9998H3.66675ZM5.32759 2.79626C4.296 3.42842 3.42867 4.29576 2.79651 5.32734L4.50179 6.37234C4.96904 5.60986 5.61011 4.9688 6.37259 4.50154L5.32759 2.79626ZM14.6889 26.7862C14.4182 26.3289 14.1806 25.9253 13.9495 25.6082C13.7061 25.2744 13.427 24.9737 13.0399 24.7485L12.0344 26.4774C12.0976 26.5141 12.1837 26.5812 12.3332 26.7862C12.495 27.0084 12.6779 27.3152 12.9678 27.805L14.6889 26.7862ZM10.369 26.3216C10.9544 26.3317 11.3252 26.3392 11.6079 26.3704C11.8721 26.3997 11.9745 26.4425 12.0344 26.4774L13.0399 24.7485C12.6495 24.5214 12.2434 24.4285 11.828 24.3825C11.4313 24.3386 10.9517 24.3314 10.4034 24.322L10.369 26.3216ZM19.0323 27.805C19.3222 27.3152 19.505 27.0084 19.6669 26.7862C19.8163 26.5812 19.9025 26.5141 19.9657 26.4774L18.9602 24.7485C18.5731 24.9737 18.2939 25.2744 18.0506 25.6082C17.8195 25.9253 17.5819 26.3289 17.3111 26.7862L19.0323 27.805ZM21.5967 24.322C21.0483 24.3314 20.5689 24.3386 20.1721 24.3825C19.7567 24.4285 19.3506 24.5214 18.9602 24.7485L19.9657 26.4774C20.0257 26.4425 20.1281 26.3997 20.3922 26.3704C20.6749 26.3392 21.0457 26.3317 21.6311 26.3216L21.5967 24.322Z" fill="#D85F44"/><path d="M10.6667 14.6665H10.6787M15.9881 14.6665H16.0001M21.3214 14.6665H21.3334" stroke="#D85F44" stroke-width="2.66667" stroke-linecap="round" stroke-linejoin="round"/></symbol>
	<symbol id="Training" viewBox="0 0 32 32" fill="none" xmlns="http://www.w3.org/2000/svg"><path d="M22.6667 9.3335L16 16.0002M16 16.0002H21M16 16.0002V11.0002" stroke="#D85F44" stroke-width="2" stroke-linecap="round" stroke-linejoin="round"/><path d="M2.66675 23.9998C2.66675 21.4857 2.66675 20.2286 3.4478 19.4476C4.22884 18.6665 5.48592 18.6665 8.00008 18.6665C10.5142 18.6665 11.7713 18.6665 12.5524 19.4476C13.3334 20.2286 13.3334 21.4857 13.3334 23.9998C13.3334 26.514 13.3334 27.771 12.5524 28.5521C11.7713 29.3332 10.5142 29.3332 8.00008 29.3332C5.48592 29.3332 4.22884 29.3332 3.4478 28.5521C2.66675 27.771 2.66675 26.514 2.66675 23.9998Z" stroke="#D85F44" stroke-width="2"/><path d="M15.9998 2.6665C22.2852 2.6665 25.4279 2.6665 27.3804 4.61913C29.3331 6.57174 29.3331 9.71444 29.3331 15.9998C29.3331 22.2852 29.3331 25.428 27.3804 27.3805C25.5711 29.19 22.7399 29.3226 17.3331 29.3324M2.66724 14.6665C2.67697 9.25974 2.8097 6.4285 4.61909 4.61913C5.91742 3.32078 7.74192 2.88574 10.6666 2.73997" stroke="#D85F44" stroke-width="2" stroke-linecap="round"/></symbol>
	<symbol id="Integration" viewBox="0 0 32 32" fill="none" xmlns="http://www.w3.org/2000/svg"><path d="M8 13.3299C8.01929 11.0544 8.14561 9.80005 8.97284 8.97284C9.80005 8.14561 11.0544 8.01929 13.3299 8" stroke="#D85F44" stroke-width="2" stroke-linecap="round"/><path d="M8 18.6675C8.01929 20.9428 8.14561 22.1972 8.97284 23.0244C9.80005 23.8516 11.0544 23.978 13.3299 23.9972" stroke="#D85F44" stroke-width="2" stroke-linecap="round"/><path d="M23.9969 13.3299C23.9775 11.0544 23.8511 9.80005 23.0239 8.97284C22.1967 8.14561 20.9423 8.01929 18.667 8" stroke="#D85F44" stroke-width="2" stroke-linecap="round"/><path d="M23.9969 18.6675C23.9775 20.9428 23.8511 22.1972 23.0239 23.0244C22.1967 23.8516 20.9423 23.978 18.667 23.9972" stroke="#D85F44" stroke-width="2" stroke-linecap="round"/><path d="M29.3334 15.9998C29.3334 22.2852 29.3334 25.428 27.3807 27.3805C25.4282 29.3332 22.2854 29.3332 16.0001 29.3332C9.71468 29.3332 6.57199 29.3332 4.61937 27.3805C2.66675 25.428 2.66675 22.2852 2.66675 15.9998C2.66675 9.71444 2.66675 6.57174 4.61937 4.61913C6.57199 2.6665 9.71468 2.6665 16.0001 2.6665C22.2854 2.6665 25.4282 2.6665 27.3807 4.61913C28.6791 5.91745 29.1142 7.7419 29.2599 10.6665" stroke="#D85F44" stroke-width="2" stroke-linecap="round"/></symbol>
	<symbol id="Members" viewBox="0 0 32 32" fill="none" xmlns="http://www.w3.org/2000/svg"><path d="M12.0001 13.3332C14.9456 13.3332 17.3334 10.9454 17.3334 7.99984C17.3334 5.05432 14.9456 2.6665 12.0001 2.6665C9.05456 2.6665 6.66675 5.05432 6.66675 7.99984C6.66675 10.9454 9.05456 13.3332 12.0001 13.3332Z" stroke="#D85F44" stroke-width="2"/><path d="M20 12C22.2092 12 24 10.2091 24 8C24 5.79087 22.2092 4 20 4" stroke="#D85F44" stroke-width="2" stroke-linecap="round"/><path d="M7.85228 27.4459C9.10177 27.8007 10.5102 28.0002 12.0001 28.0002C17.1547 28.0002 21.3334 25.6123 21.3334 22.6668C21.3334 19.7214 17.1547 17.3335 12.0001 17.3335C6.84543 17.3335 2.66675 19.7214 2.66675 22.6668C2.66675 23.1272 2.76884 23.574 2.96079 24.0002" stroke="#D85F44" stroke-width="2" stroke-linecap="round"/><path d="M24 18.6665C26.3389 19.1794 28 20.4784 28 21.9998C28 23.3722 26.6484 24.5637 24.6667 25.1604" stroke="#D85F44" stroke-width="2" stroke-linecap="round"/></symbol>
	<symbol id="Mail" viewBox="0 0 32 32" fill="none" xmlns="http://www.w3.org/2000/svg"><path d="M29.3334 16.0002C29.3334 21.0284 29.3334 23.5427 27.7713 25.1047C26.2093 26.6668 23.695 26.6668 18.6667 26.6668H13.3334C8.30509 26.6668 5.79095 26.6668 4.22884 25.1047C2.66675 23.5427 2.66675 21.0284 2.66675 16.0002C2.66675 10.9718 2.66675 8.4577 4.22884 6.89559C5.79095 5.3335 8.30509 5.3335 13.3334 5.3335H18.6667C23.695 5.3335 26.2093 5.3335 27.7713 6.89559C28.6422 7.7665 29.0275 8.93335 29.1981 10.6668" stroke="#161415" stroke-width="2" stroke-linecap="round"/><path d="M24 10.6665L21.1215 13.0653C18.6727 15.106 17.4481 16.1264 16 16.1264C15.1343 16.1264 14.3485 15.7617 13.3333 15.0324M8 10.6665L9.2 11.6665L10.4 12.6665" stroke="#161415" stroke-width="2" stroke-linecap="round"/></symbol>
	<symbol id="Course" viewBox="0 0 32 32" fill="none" xmlns="http://www.w3.org/2000/svg"><path d="M29.3332 16C29.3332 19.6771 27.8446 23.0065 25.4374 25.4187M2.6665 16C2.6665 12.3133 4.1628 8.9761 6.58121 6.5625M25.5217 6.6667C26.6492 7.81671 27.5698 9.17009 28.2237 10.6667M6.6665 25.522C5.45301 24.3324 4.46594 22.9127 3.77596 21.3333" stroke="#D85F44" stroke-width="2" stroke-linecap="round" stroke-linejoin="round"/><path d="M21.7132 10.7256C23.1277 12.0787 24 13.9321 24 15.9766C24 18.0454 23.1069 19.9185 21.6625 21.2755M10.4 21.3337C8.91891 19.9722 8 18.075 8 15.9766C8 13.9025 8.89777 12.0249 10.3488 10.667" stroke="#D85F44" stroke-width="2" stroke-linecap="round" stroke-linejoin="round"/><path d="M18.2086 13.9348C19.403 14.8117 20.0002 15.2501 20.0002 16C20.0002 16.7499 19.403 17.1883 18.2086 18.0652C17.879 18.3072 17.5519 18.5352 17.2514 18.7251C16.9878 18.8917 16.6892 19.064 16.38 19.2332C15.1886 19.8853 14.5927 20.2115 14.0584 19.8504C13.524 19.4893 13.4755 18.7336 13.3784 17.2221C13.351 16.7947 13.3335 16.3756 13.3335 16C13.3335 15.6244 13.351 15.2053 13.3784 14.7779C13.4755 13.2664 13.524 12.5106 14.0584 12.1496C14.5927 11.7886 15.1886 12.1147 16.38 12.7668C16.6892 12.936 16.9878 13.1083 17.2514 13.2749C17.5519 13.4648 17.879 13.6928 18.2086 13.9348Z" stroke="#D85F44" stroke-width="2"/></symbol>
	<symbol id="Gear" viewBox="0 0 32 32" fill="none" xmlns="http://www.w3.org/2000/svg"><path d="M16 20C18.2091 20 20 18.2091 20 16C20 13.7909 18.2091 12 16 12C13.7909 12 12 13.7909 12 16C12 18.2091 13.7909 20 16 20Z" stroke="#D85F44" stroke-width="2"/><path d="M4.88179 14.1854C5.51185 14.5813 5.91725 15.2557 5.91725 15.9997C5.91724 16.7438 5.51184 17.4182 4.88179 17.8141C4.45304 18.0834 4.1768 18.2988 3.98027 18.5549C3.54972 19.1161 3.35971 19.8252 3.45203 20.5264C3.52125 21.0522 3.83188 21.5902 4.45313 22.6664C5.0744 23.7424 5.38503 24.2804 5.80584 24.6033C6.36693 25.0338 7.07608 25.2238 7.77728 25.1316C8.09732 25.0894 8.42187 24.9578 8.86944 24.7213C9.52741 24.3736 10.3143 24.3597 10.9588 24.7318C11.6032 25.104 11.9845 25.7922 12.0123 26.5358C12.0313 27.0418 12.0796 27.3888 12.2031 27.687C12.4738 28.3404 12.9929 28.8596 13.6463 29.1302C14.1364 29.3332 14.7576 29.3332 16.0002 29.3332C17.2427 29.3332 17.8639 29.3332 18.354 29.1302C19.0074 28.8596 19.5266 28.3404 19.7972 27.687C19.9207 27.3888 19.9691 27.0418 19.988 26.536C20.0158 25.7922 20.3971 25.104 21.0416 24.7318C21.686 24.3598 22.4728 24.3737 23.1307 24.7214C23.5784 24.958 23.903 25.0896 24.223 25.1317C24.9242 25.2241 25.6334 25.034 26.1944 24.6034C26.6152 24.2806 26.9259 23.7425 27.5472 22.6665C27.8238 22.1874 28.0388 21.815 28.1983 21.5028M27.1184 17.8142C26.4884 17.4184 26.0831 16.744 26.083 16C26.083 15.2558 26.4884 14.5813 27.1184 14.1854C27.5472 13.9161 27.8234 13.7008 28.0199 13.4446C28.4504 12.8835 28.6404 12.1744 28.5482 11.4732C28.479 10.9473 28.1683 10.4093 27.547 9.33324C26.9258 8.25718 26.6151 7.71917 26.1943 7.39626C25.6332 6.96572 24.924 6.7757 24.2228 6.86801C23.9028 6.91016 23.5783 7.0417 23.1307 7.27828C22.4727 7.62602 21.6859 7.63989 21.0415 7.26778C20.3971 6.8957 20.0158 6.20744 19.988 5.46388C19.9691 4.95786 19.9207 4.61097 19.7972 4.31268C19.5266 3.65928 19.0074 3.14014 18.354 2.86949C17.8639 2.6665 17.2427 2.6665 16.0002 2.6665C14.7576 2.6665 14.1364 2.6665 13.6463 2.86949C12.9929 3.14014 12.4738 3.65928 12.2031 4.31268C12.0796 4.61094 12.0313 4.95781 12.0123 5.46376C11.9845 6.20738 11.6032 6.89572 10.9587 7.26778C10.3143 7.63986 9.52747 7.62596 8.86956 7.27824C8.42193 7.04165 8.09736 6.91009 7.77729 6.86794C7.07609 6.77564 6.36695 6.96565 5.80585 7.3962C5.38504 7.7191 5.07441 8.25713 4.45315 9.33317C4.17657 9.81222 3.96156 10.1846 3.802 10.4968" stroke="#D85F44" stroke-width="2" stroke-linecap="round"/></symbol>
	<symbol id="MiniCart" viewBox="0 0 32 32" fill="none" xmlns="http://www.w3.org/2000/svg"><path d="M2.6665 4L3.01972 4.11773C4.77977 4.70443 5.6598 4.99776 6.16314 5.69613C6.6665 6.39449 6.6665 7.32212 6.6665 9.17739V12.6667C6.6665 16.4379 6.6665 18.3235 7.83808 19.4951C9.00965 20.6667 10.8953 20.6667 14.6665 20.6667H17.3332M25.3332 20.6667H22.6665" stroke="#D85F44" stroke-width="2" stroke-linecap="round"/><path d="M10 24C11.1046 24 12 24.8955 12 26C12 27.1045 11.1046 28 10 28C8.89543 28 8 27.1045 8 26C8 24.8955 8.89543 24 10 24Z" stroke="#D85F44" stroke-width="2"/><path d="M22 24C23.1045 24 24 24.8953 24 26C24 27.1045 23.1045 28 22 28C20.8955 28 20 27.1045 20 26C20 24.8953 20.8955 24 22 24Z" stroke="#D85F44" stroke-width="2"/><path d="M6.6665 8H10.6665M7.33317 17.3333H21.3622C22.6414 17.3333 23.281 17.3333 23.782 17.0031C24.2829 16.6727 24.5349 16.0848 25.0388 14.9091L25.6102 13.5757C26.6896 11.0573 27.2293 9.79804 26.6365 8.89901C26.0436 8 24.6737 8 21.9337 8H15.9998" stroke="#D85F44" stroke-width="2" stroke-linecap="round"/></symbol>
	<symbol id="Checked" viewBox="0 0 32 32" fill="none" xmlns="http://www.w3.org/2000/svg"><path d="M11.3333 16.6665L13.9999 19.3332L20.6666 12.6665" stroke="#D85F44" stroke-width="2" stroke-linecap="round" stroke-linejoin="round"/><path d="M4.039 17.437C3.60451 16.5279 3.60451 15.4711 4.039 14.562C4.22687 14.169 4.54722 13.7931 5.18792 13.0413C5.44292 12.7421 5.57043 12.5924 5.67752 12.4327C5.92303 12.0664 6.09342 11.655 6.17882 11.2224C6.21609 11.0337 6.23171 10.8377 6.26299 10.4458C6.34156 9.46118 6.38086 8.96884 6.52594 8.55808C6.8615 7.60804 7.60878 6.86078 8.55882 6.5252C8.96956 6.38012 9.46191 6.34083 10.4466 6.26226C10.8385 6.23099 11.0344 6.21535 11.2232 6.17808C11.6558 6.09268 12.0671 5.9223 12.4334 5.67679C12.5932 5.5697 12.7428 5.44219 13.042 5.18719C13.7938 4.54648 14.1697 4.22614 14.5628 4.03828C15.4718 3.60378 16.5286 3.60378 17.4377 4.03828C17.8308 4.22614 18.2066 4.54648 18.9585 5.18719C19.2577 5.44219 19.4073 5.5697 19.5672 5.67679C19.9334 5.9223 20.3448 6.09268 20.7773 6.17808C20.9661 6.21535 21.162 6.23099 21.554 6.26226C22.5386 6.34083 23.0309 6.38012 23.4417 6.5252C24.3917 6.86078 25.139 7.60804 25.4746 8.55808M6.52594 23.441C6.8615 24.391 7.60878 25.1383 8.55882 25.4739C8.96956 25.619 9.46191 25.6582 10.4466 25.7368C10.8385 25.768 11.0344 25.7838 11.2232 25.821C11.6558 25.9064 12.0671 26.0767 12.4334 26.3223C12.5932 26.4294 12.7428 26.5568 13.042 26.8119C13.7938 27.4526 14.1697 27.773 14.5628 27.9608C15.4718 28.3952 16.5286 28.3952 17.4377 27.9608C17.8308 27.773 18.2066 27.4526 18.9585 26.8119C19.2577 26.5568 19.4073 26.4294 19.5672 26.3223C19.9334 26.0767 20.3448 25.9064 20.7773 25.821C20.9661 25.7838 21.162 25.768 21.554 25.7368C22.5386 25.6582 23.0309 25.619 23.4417 25.4739C24.3917 25.1383 25.139 24.391 25.4746 23.441C25.6197 23.0302 25.6589 22.5379 25.7376 21.5532C25.7688 21.1614 25.7844 20.9654 25.8217 20.7767C25.907 20.344 26.0774 19.9327 26.323 19.5664C26.4301 19.4066 26.5576 19.257 26.8126 18.9578C27.4533 18.2059 27.7737 17.83 27.9616 17.437C28.396 16.5279 28.396 15.4711 27.9616 14.562" stroke="#D85F44" stroke-width="2" stroke-linecap="round"/></symbol>
	<symbol id="Logo" viewBox="0 0 182 31" fill="none" xmlns="http://www.w3.org/2000/svg"><path d="M0 7.82491V1.76562H22.2308V7.82491H14.4861V29.855H7.70453V7.82491H0Z" fill="#2C52A3"/><path d="M37.3111 29.855V24.2773H56.0001V29.855H37.3111ZM37.3111 7.34338V1.76562H56.0001V7.34338H37.3111ZM37.3111 17.8167V12.3593H55.1976V17.8167H37.3111Z" fill="#2C52A3"/><path d="M73.5576 1.76562H80.5799V29.855H73.5576V1.76562ZM90.1304 1.76562H98.0756L86.6794 14.9275L98.6776 29.855H90.4514L78.6137 15.1282L90.1304 1.76562Z" fill="#2C52A3"/><path d="M117.233 15.8103C117.233 17.4689 117.554 18.9403 118.196 20.2244C118.865 21.4817 119.788 22.4715 120.965 23.1938C122.169 23.9161 123.573 24.2773 125.178 24.2773C126.757 24.2773 128.135 23.9161 129.312 23.1938C130.515 22.4715 131.438 21.4817 132.08 20.2244C132.749 18.9403 133.084 17.4689 133.084 15.8103C133.084 14.1517 132.763 12.6937 132.121 11.4364C131.479 10.1523 130.569 9.14913 129.392 8.42683C128.215 7.70453 126.81 7.34338 125.178 7.34338C123.573 7.34338 122.169 7.70453 120.965 8.42683C119.788 9.14913 118.865 10.1523 118.196 11.4364C117.554 12.6937 117.233 14.1517 117.233 15.8103ZM110.05 15.8103C110.05 13.6434 110.425 11.6638 111.174 9.87142C111.95 8.07905 113.02 6.52745 114.384 5.21661C115.748 3.90577 117.354 2.90257 119.199 2.20703C121.045 1.48473 123.038 1.12358 125.178 1.12358C127.345 1.12358 129.338 1.48473 131.158 2.20703C133.003 2.90257 134.609 3.90577 135.973 5.21661C137.337 6.52745 138.394 8.07905 139.143 9.87142C139.892 11.6638 140.267 13.6434 140.267 15.8103C140.267 17.9772 139.892 19.9702 139.143 21.7894C138.421 23.6085 137.377 25.1868 136.013 26.5244C134.675 27.862 133.084 28.9054 131.238 29.6544C129.392 30.3767 127.372 30.7379 125.178 30.7379C122.958 30.7379 120.925 30.3767 119.079 29.6544C117.233 28.9054 115.628 27.862 114.264 26.5244C112.926 25.1868 111.883 23.6085 111.134 21.7894C110.411 19.9702 110.05 17.9772 110.05 15.8103Z" fill="#2C52A3"/><path d="M159.849 24.4378L160.331 19.2613H174.255L174.697 24.4378H159.849ZM167.193 12.0785L163.26 21.1473L163.581 22.632L160.09 29.855H152.426L167.193 0L182 29.855H174.295L170.925 22.9129L171.165 21.1874L167.193 12.0785Z" fill="#2C52A3"/></symbol>
</svg>