<svg style="display:none">
	<symbol id="ArrowX" viewBox="0 0 20 32" fill="none" xmlns="http://www.w3.org/2000/svg"><path d="M0.514971 14.7561L14.7568 0.514971C15.4434 -0.171657 16.5573 -0.171657 17.2439 0.514971L18.9052 2.17621C19.5911 2.86211 19.5918 3.97302 18.9081 4.66038L7.62087 15.9996L18.9074 27.3396C19.5918 28.027 19.5903 29.1379 18.9044 29.8238L17.2432 31.485C16.5566 32.1717 15.4427 32.1717 14.7561 31.485L0.514971 17.2432C-0.171657 16.5566 -0.171657 15.4427 0.514971 14.7561Z" fill="#353535"/></symbol>
	<symbol id="Dress" viewBox="0 0 14 16" fill="none" xmlns="http://www.w3.org/2000/svg"><path d="M13.2125 12.6185L10.7257 8.60092C10.2108 7.76968 9.63262 6.97929 8.99642 6.23674L8.50005 5.65758V5.00005C8.5 4.65404 8.57983 4.31269 8.7333 4.00258C8.88678 3.69247 9.10976 3.42197 9.38489 3.21214L10.3619 2.72364C10.3952 2.70697 10.4244 2.68305 10.4473 2.65364C10.4702 2.62422 10.4863 2.59005 10.4943 2.55364C10.5023 2.51722 10.502 2.47947 10.4935 2.44317C10.4851 2.40686 10.4686 2.37291 10.4453 2.3438L9.44527 1.0938L9.44508 1.09395C9.42257 1.06565 9.39418 1.04259 9.36186 1.02636L8.36186 0.526361C8.32426 0.507541 8.28252 0.498515 8.24051 0.500121C8.1985 0.501727 8.15757 0.513913 8.12152 0.535548C7.78272 0.738757 7.39511 0.846161 7.00005 0.846298C6.60499 0.846189 6.21738 0.738818 5.87858 0.535642C5.84256 0.513985 5.80165 0.501772 5.75966 0.500133C5.71766 0.498494 5.67593 0.507483 5.63833 0.526267L4.63833 1.02627C4.60601 1.04249 4.57762 1.06556 4.55511 1.09386L4.55483 1.0938L3.55483 2.3438C3.53155 2.37291 3.51507 2.40685 3.5066 2.44315C3.49813 2.47945 3.49789 2.51718 3.50588 2.55358C3.51388 2.58999 3.52991 2.62414 3.55281 2.65355C3.57571 2.68296 3.6049 2.70688 3.63823 2.72355L4.6152 3.21205C4.89035 3.42188 5.11334 3.6924 5.26681 4.00252C5.42029 4.31265 5.50011 4.65402 5.50005 5.00005V5.65758L5.0037 6.23667C4.36749 6.97926 3.78934 7.76969 3.27436 8.60095L0.787547 12.6185C0.762317 12.6592 0.749339 12.7064 0.750159 12.7543C0.750979 12.8022 0.765562 12.8489 0.792172 12.8888C1.01 13.2155 1.31462 13.475 1.6718 13.6381L1.5343 13.8741H1.53455C1.52827 13.8846 1.52278 13.8956 1.51814 13.907C1.4935 13.9686 1.49432 14.0374 1.52043 14.0983C1.54653 14.1593 1.59577 14.2074 1.65733 14.232L1.9502 14.3492C2.47005 14.5579 3.03319 14.6358 3.59017 14.576L3.5063 14.9447C3.49875 14.9779 3.49807 15.0123 3.5043 15.0457C3.51052 15.0792 3.52352 15.1111 3.54249 15.1394C3.56146 15.1676 3.58601 15.1917 3.61463 15.2102C3.64325 15.2286 3.67534 15.241 3.70892 15.2466L4.28183 15.3423C4.91249 15.4471 5.55072 15.4999 6.19005 15.5H7.81005C8.44942 15.4999 9.08769 15.4471 9.71839 15.3422L10.2912 15.2466C10.3248 15.241 10.3569 15.2286 10.3855 15.2102C10.4141 15.1917 10.4387 15.1676 10.4576 15.1394C10.4766 15.1111 10.4896 15.0792 10.4958 15.0457C10.5021 15.0123 10.5014 14.9779 10.4938 14.9447L10.4101 14.5762C10.9671 14.6359 11.5303 14.558 12.0501 14.3494L12.343 14.2322C12.3765 14.219 12.4067 14.1987 12.4316 14.1727C12.4565 14.1467 12.4754 14.1156 12.4871 14.0816C12.4988 14.0475 12.5029 14.0113 12.4992 13.9755C12.4956 13.9397 12.4841 13.9052 12.4658 13.8742H12.466L12.3285 13.6383C12.6857 13.4751 12.9903 13.2156 13.2081 12.8889C13.2347 12.849 13.2493 12.8023 13.2501 12.7543C13.2509 12.7064 13.2378 12.6592 13.2125 12.6185ZM9.50005 2.59555V1.96274L9.86164 2.41477L9.50005 2.59555ZM7.98755 1.15727C7.95005 1.39219 7.83003 1.60605 7.64904 1.76044C7.46805 1.91484 7.23794 1.99965 7.00005 1.99965C6.76215 1.99965 6.53205 1.91484 6.35106 1.76044C6.17006 1.60605 6.05004 1.39219 6.01255 1.15727C6.32684 1.28202 6.6619 1.34616 7.00005 1.3463C7.33819 1.34616 7.67326 1.28202 7.98755 1.15727ZM4.50005 1.96274V2.59555L4.13845 2.41477L4.50005 1.96274ZM5.00005 2.87886V1.40455L5.50761 1.15077C5.5449 1.52067 5.71822 1.86355 5.99398 2.11291C6.26973 2.36227 6.62827 2.50033 7.00005 2.50033C7.37183 2.50033 7.73036 2.36227 8.00612 2.11291C8.28187 1.86355 8.4552 1.52067 8.49249 1.15077L9.00005 1.40455V2.87886C8.719 3.11068 8.48684 3.39605 8.31706 3.71839C8.14728 4.04072 8.04327 4.39359 8.01108 4.75648C7.80985 4.77543 7.61517 4.83799 7.44056 4.9398C7.26596 5.04162 7.11564 5.18025 7.00005 5.34605C6.88446 5.18025 6.73413 5.04162 6.55953 4.9398C6.38493 4.83799 6.19025 4.77543 5.98902 4.75648C5.95682 4.39359 5.85281 4.04072 5.68303 3.71839C5.51325 3.39605 5.28109 3.11068 5.00005 2.87886ZM7.30789 5.82545C7.36361 5.67898 7.45691 5.54977 7.57841 5.4508C7.69991 5.35183 7.84534 5.2866 8.00005 5.26167V5.63874C7.90402 5.7163 7.79286 5.77298 7.67367 5.80513C7.55449 5.83728 7.4299 5.8442 7.30789 5.82545ZM6.00005 5.63874V5.26167C6.15476 5.2866 6.30018 5.35183 6.42168 5.4508C6.54319 5.54977 6.63649 5.67898 6.6922 5.82545C6.57019 5.8442 6.44561 5.83728 6.32642 5.80513C6.20724 5.77297 6.09608 5.7163 6.00005 5.63874ZM2.13577 13.8851L2.11205 13.8757L3.71599 11.1261L3.28411 10.8742L1.92505 13.2036C1.68239 13.1015 1.46837 12.9416 1.30161 12.7378L3.69945 8.8642C4.20089 8.05481 4.76383 7.28517 5.3833 6.56211L5.78095 6.09814C5.84868 6.14389 5.92031 6.18356 5.99502 6.2167L5.30108 8.02067C4.94131 8.95721 4.64896 9.91828 4.42627 10.8965L3.70845 14.055C3.17858 14.1439 2.63443 14.0852 2.13577 13.8851ZM4.36389 14.8491L4.05242 14.7971L4.9137 11.0073C5.13112 10.0524 5.41654 9.11426 5.76777 8.20005L6.48339 6.33974L6.46499 6.33267C6.4952 6.33464 6.52545 6.33602 6.55586 6.33602C6.62084 6.33592 6.68573 6.33127 6.75005 6.32208V15H6.19005C5.57826 14.9999 4.96752 14.9494 4.36402 14.8491H4.36389ZM9.63602 14.8491C9.03253 14.9494 8.42182 14.9999 7.81005 15H7.25005V6.32217C7.31437 6.33134 7.37926 6.33598 7.44424 6.33608C7.47464 6.33608 7.50492 6.3347 7.53511 6.33274L7.5167 6.3398L8.23233 8.20005C8.58351 9.11426 8.86888 10.0524 9.08627 11.0073L9.94755 14.7971L9.63602 14.8491ZM12.4524 12.9801C12.3373 13.0715 12.2103 13.1467 12.0748 13.2037L10.716 10.8741L10.2841 11.126L11.888 13.8756L11.8644 13.885C11.3657 14.0851 10.8215 14.1438 10.2916 14.0549L9.57383 10.8964C9.35113 9.91816 9.05878 8.95708 8.69902 8.02052L8.00508 6.21658C8.07978 6.18344 8.15141 6.14377 8.21914 6.09805L8.61683 6.56208C9.23628 7.2851 9.7992 8.05469 10.3006 8.86405L12.6985 12.7378C12.6254 12.8272 12.5429 12.9084 12.4525 12.9801L12.4524 12.9801Z" fill="black"/></symbol>
	<symbol id="User" viewBox="0 0 14 16" fill="none" xmlns="http://www.w3.org/2000/svg"><path d="M9.8 9.5C8.90312 9.5 8.47188 10 7 10C5.52812 10 5.1 9.5 4.2 9.5C1.88125 9.5 0 11.3813 0 13.7V14.5C0 15.3281 0.671875 16 1.5 16H12.5C13.3281 16 14 15.3281 14 14.5V13.7C14 11.3813 12.1187 9.5 9.8 9.5ZM12.5 14.5H1.5V13.7C1.5 12.2125 2.7125 11 4.2 11C4.65625 11 5.39687 11.5 7 11.5C8.61563 11.5 9.34062 11 9.8 11C11.2875 11 12.5 12.2125 12.5 13.7V14.5ZM7 9C9.48438 9 11.5 6.98438 11.5 4.5C11.5 2.01562 9.48438 0 7 0C4.51562 0 2.5 2.01562 2.5 4.5C2.5 6.98438 4.51562 9 7 9ZM7 1.5C8.65312 1.5 10 2.84687 10 4.5C10 6.15312 8.65312 7.5 7 7.5C5.34688 7.5 4 6.15312 4 4.5C4 2.84687 5.34688 1.5 7 1.5Z" fill="#353535"/></symbol>
	<symbol id="Heart" viewBox="0 0 19 16" fill="none" xmlns="http://www.w3.org/2000/svg"><path d="M16.367 1.15404C14.3033 -0.581202 11.1148 -0.320559 9.14037 1.68961C7.16591 -0.320559 3.97749 -0.584772 1.91377 1.15404C-0.771215 3.41414 -0.378464 7.09885 1.5353 9.05189L7.79788 15.4323C8.15493 15.7965 8.63337 16 9.14037 16C9.65095 16 10.1258 15.8001 10.4829 15.4359L16.7454 9.05546C18.6556 7.10242 19.0555 3.41771 16.367 1.15404ZM15.5244 7.84865L9.26177 14.2291C9.17608 14.3147 9.10467 14.3147 9.01898 14.2291L2.7564 7.84865C1.45318 6.52044 1.18897 4.00683 3.01704 2.46797C4.40595 1.30043 6.54822 1.47538 7.89071 2.84287L9.14037 4.11752L10.39 2.84287C11.7397 1.46824 13.8819 1.30043 15.2637 2.4644C17.0882 4.00326 16.8169 6.53115 15.5244 7.84865Z" fill="#353535"/></symbol>
	<symbol id="Bag" viewBox="0 0 15 16" fill="none" xmlns="http://www.w3.org/2000/svg"><path d="M14.3755 15.4741L13.1128 3.89368C13.0864 3.65125 12.8742 3.46716 12.6211 3.46716H10.248V2.94604C10.248 1.32166 8.8757 0 7.18914 0C5.50244 0 4.1302 1.32166 4.1302 2.94604V3.46716H1.75706C1.50395 3.46716 1.29179 3.65125 1.2653 3.89368L0.00268441 15.4741C-0.011891 15.6083 0.0333562 15.7422 0.127019 15.8425C0.220809 15.9427 0.354396 16 0.494447 16H13.8836C14.0237 16 14.1573 15.9427 14.251 15.8425C14.3449 15.7422 14.39 15.6083 14.3755 15.4741ZM5.11904 2.94604C5.11904 1.8468 6.04769 0.952393 7.18914 0.952393C8.33046 0.952393 9.2591 1.8468 9.2591 2.94604V3.46716H5.11904V2.94604ZM1.0435 15.0476L2.20231 4.41956H4.1302V5.46899C4.1302 5.73193 4.35161 5.94519 4.62462 5.94519C4.89762 5.94519 5.11904 5.73193 5.11904 5.46899V4.41956H9.2591V5.46899C9.2591 5.73193 9.48052 5.94519 9.75353 5.94519C10.0265 5.94519 10.248 5.73193 10.248 5.46899V4.41956H12.1758L13.3346 15.0476H1.0435Z" fill="#353535"/></symbol>
	<symbol id="Magnifier" viewBox="0 0 32 32" fill="none" xmlns="http://www.w3.org/2000/svg"><path d="M27.8535 26.4395L20.8817 19.4677C22.204 17.8351 23 15.7597 23 13.5C23 8.26175 18.7383 4 13.5 4C8.2617 4 4 8.26175 4 13.5C4 18.7383 8.26175 23.0001 13.5 23.0001C15.7597 23.0001 17.8351 22.204 19.4677 20.8817L26.4395 27.8536C26.6348 28.0488 26.9513 28.0488 27.1467 27.8536L27.8536 27.1466C28.0488 26.9513 28.0488 26.6347 27.8535 26.4395ZM13.5 21.0001C9.3643 21.0001 6.00002 17.6358 6.00002 13.5C6.00002 9.3643 9.3643 6.00002 13.5 6.00002C17.6358 6.00002 21.0001 9.3643 21.0001 13.5C21.0001 17.6358 17.6358 21.0001 13.5 21.0001Z" fill="black"/></symbol>
	<symbol id="Menu" viewBox="0 0 32 32" fill="none" xmlns="http://www.w3.org/2000/svg"><path d="M27.0625 15.0625H4.9375C4.41972 15.0625 4 15.4822 4 16C4 16.5178 4.41972 16.9375 4.9375 16.9375H27.0625C27.5803 16.9375 28 16.5178 28 16C28 15.4822 27.5803 15.0625 27.0625 15.0625Z" fill="black"/><path d="M27.0625 7.5625H4.9375C4.41972 7.5625 4 7.98222 4 8.5C4 9.01778 4.41972 9.4375 4.9375 9.4375H27.0625C27.5803 9.4375 28 9.01778 28 8.5C28 7.98222 27.5803 7.5625 27.0625 7.5625Z" fill="black"/><path d="M27.0625 22.5625H4.9375C4.41972 22.5625 4 22.9822 4 23.5C4 24.0178 4.41972 24.4375 4.9375 24.4375H27.0625C27.5803 24.4375 28 24.0178 28 23.5C28 22.9822 27.5803 22.5625 27.0625 22.5625Z" fill="black"/></symbol>
	<symbol id="XFill" viewBox="0 0 33 33" fill="none" xmlns="http://www.w3.org/2000/svg"><path fill-rule="evenodd" clip-rule="evenodd" d="M1.375 16.5C1.375 8.1467 8.1467 1.375 16.5 1.375C24.8533 1.375 31.625 8.1467 31.625 16.5C31.625 24.8533 24.8533 31.625 16.5 31.625C8.1467 31.625 1.375 24.8533 1.375 16.5ZM10.6664 9.69409C11.2033 9.15713 12.0739 9.15713 12.6109 9.69409L16.5 13.5832L20.389 9.69409C20.9261 9.15713 21.7966 9.15713 22.3336 9.69409L23.3058 10.6664C23.8429 11.2033 23.8429 12.0739 23.3058 12.6109L19.4168 16.5L23.3058 20.389C23.8429 20.9261 23.8429 21.7966 23.3058 22.3336L22.3336 23.3058C21.7966 23.8429 20.9261 23.8429 20.389 23.3058L16.5 19.4168L12.6109 23.3058C12.0739 23.8429 11.2033 23.8429 10.6664 23.3058L9.69409 22.3336C9.15713 21.7966 9.15713 20.9261 9.69409 20.389L13.5832 16.5L9.69409 12.6109C9.15713 12.0739 9.15713 11.2033 9.69409 10.6664L10.6664 9.69409Z" fill="#353535"/></symbol>
	<symbol id="X" viewBox="0 0 18 18" fill="none" xmlns="http://www.w3.org/2000/svg"><path d="M5.03038 3.43939C4.73749 3.1465 4.26262 3.1465 3.96973 3.43939L3.43939 3.96973C3.1465 4.26262 3.1465 4.73749 3.43939 5.03038L7.40908 9.00004L3.43942 12.9697C3.14653 13.2626 3.14653 13.7375 3.43942 14.0304L3.96975 14.5607C4.26265 14.8536 4.73752 14.8536 5.03041 14.5607L9.00007 10.5911L12.9697 14.5607C13.2626 14.8536 13.7375 14.8536 14.0304 14.5607L14.5607 14.0304C14.8536 13.7375 14.8536 13.2626 14.5607 12.9697L10.591 9.00004L14.5607 5.03038C14.8536 4.73749 14.8536 4.26262 14.5607 3.96973L14.0304 3.43939C13.7375 3.1465 13.2626 3.1465 12.9697 3.43939L9.00007 7.40908L5.03038 3.43939Z" fill="#353535"/></symbol>
	<symbol id="HeartWhite" viewBox="0 0 19 16" fill="none" xmlns="http://www.w3.org/2000/svg"><path d="M16.367 1.15404C14.3033 -0.581202 11.1148 -0.320559 9.14037 1.68961C7.16591 -0.320559 3.97749 -0.584772 1.91377 1.15404C-0.771215 3.41414 -0.378464 7.09885 1.5353 9.05189L7.79788 15.4323C8.15493 15.7965 8.63337 16 9.14037 16C9.65095 16 10.1258 15.8001 10.4829 15.4359L16.7454 9.05546C18.6556 7.10242 19.0555 3.41771 16.367 1.15404V1.15404ZM15.5244 7.84865L9.26177 14.2291C9.17608 14.3147 9.10467 14.3147 9.01898 14.2291L2.7564 7.84865C1.45318 6.52044 1.18897 4.00683 3.01704 2.46797C4.40595 1.30043 6.54822 1.47538 7.89071 2.84287L9.14037 4.11752L10.39 2.84287C11.7397 1.46824 13.8819 1.30043 15.2637 2.4644C17.0882 4.00326 16.8169 6.53115 15.5244 7.84865V7.84865Z" fill="white"/></symbol>
	<symbol id="UserWhite" viewBox="0 0 14 16" fill="none" xmlns="http://www.w3.org/2000/svg"><path d="M9.8 9.5C8.90313 9.5 8.47187 10 7 10C5.52813 10 5.1 9.5 4.2 9.5C1.88125 9.5 0 11.3812 0 13.7V14.5C0 15.3281 0.671875 16 1.5 16H12.5C13.3281 16 14 15.3281 14 14.5V13.7C14 11.3812 12.1188 9.5 9.8 9.5ZM12.5 14.5H1.5V13.7C1.5 12.2125 2.7125 11 4.2 11C4.65625 11 5.39688 11.5 7 11.5C8.61563 11.5 9.34063 11 9.8 11C11.2875 11 12.5 12.2125 12.5 13.7V14.5ZM7 9C9.48438 9 11.5 6.98438 11.5 4.5C11.5 2.01562 9.48438 0 7 0C4.51562 0 2.5 2.01562 2.5 4.5C2.5 6.98438 4.51562 9 7 9ZM7 1.5C8.65313 1.5 10 2.84687 10 4.5C10 6.15313 8.65313 7.5 7 7.5C5.34687 7.5 4 6.15313 4 4.5C4 2.84687 5.34687 1.5 7 1.5Z" fill="white"/></symbol>
	<symbol id="XWhite" viewBox="0 0 18 18" fill="none" xmlns="http://www.w3.org/2000/svg"><path d="M5.03038 3.43939C4.73749 3.1465 4.26262 3.1465 3.96973 3.43939L3.43939 3.96973C3.1465 4.26262 3.1465 4.73749 3.43939 5.03038L7.40908 9.00004L3.43942 12.9697C3.14653 13.2626 3.14653 13.7375 3.43942 14.0304L3.96975 14.5607C4.26265 14.8536 4.73752 14.8536 5.03041 14.5607L9.00007 10.5911L12.9697 14.5607C13.2626 14.8536 13.7375 14.8536 14.0304 14.5607L14.5607 14.0304C14.8536 13.7375 14.8536 13.2626 14.5607 12.9697L10.591 9.00004L14.5607 5.03038C14.8536 4.73749 14.8536 4.26262 14.5607 3.96973L14.0304 3.43939C13.7375 3.1465 13.2626 3.1465 12.9697 3.43939L9.00007 7.40908L5.03038 3.43939Z" fill="white"/></symbol>
	<symbol id="Minus" viewBox="0 0 33 33" fill="none" xmlns="http://www.w3.org/2000/svg"><path fill-rule="evenodd" clip-rule="evenodd" d="M2.75 15.8125C2.75 15.0531 3.36561 14.4375 4.125 14.4375H28.875C29.6344 14.4375 30.25 15.0531 30.25 15.8125V17.1875C30.25 17.9469 29.6344 18.5625 28.875 18.5625H4.125C3.36561 18.5625 2.75 17.9469 2.75 17.1875V15.8125Z" fill="#353535"/></symbol>
	<symbol id="Plus" viewBox="0 0 33 33" fill="none" xmlns="http://www.w3.org/2000/svg"><path d="M18.5625 4.125C18.5625 3.36561 17.9469 2.75 17.1875 2.75H15.8125C15.0531 2.75 14.4375 3.36561 14.4375 4.125V14.4375H4.125C3.36561 14.4375 2.75 15.0531 2.75 15.8125V17.1875C2.75 17.9469 3.36561 18.5625 4.125 18.5625H14.4375V28.875C14.4375 29.6344 15.0531 30.25 15.8125 30.25H17.1875C17.9469 30.25 18.5625 29.6344 18.5625 28.875V18.5625H28.875C29.6344 18.5625 30.25 17.9469 30.25 17.1875V15.8125C30.25 15.0531 29.6344 14.4375 28.875 14.4375H18.5625V4.125Z" fill="#353535"/></symbol>
	<symbol id="Message" viewBox="0 0 33 33" fill="none" xmlns="http://www.w3.org/2000/svg"><path d="M3.1526 29.2765L3.13963 29.2911C2.71116 29.7312 2.62626 30.4033 2.93384 30.9368C3.24453 31.4757 3.8783 31.7388 4.47932 31.5785L12.4479 29.4536C13.9341 29.9699 15.5295 30.25 17.1875 30.25C25.1611 30.25 31.625 23.7861 31.625 15.8125C31.625 7.83889 25.1611 1.375 17.1875 1.375C9.21392 1.375 2.75003 7.83889 2.75003 15.8125C2.75003 18.704 3.60141 21.4002 5.06715 23.6599C5.02498 24.097 4.95315 24.5982 4.83923 25.1679C4.52365 26.7458 4.05779 27.8147 3.69651 28.4651C3.51537 28.7911 3.35901 29.0146 3.25838 29.1462C3.20801 29.212 3.17148 29.255 3.1526 29.2765Z" fill="#353535"/></symbol>
	<symbol id="ArrowY" viewBox="0 0 33 33" fill="none" xmlns="http://www.w3.org/2000/svg"><path fill-rule="evenodd" clip-rule="evenodd" d="M4.52783 23.257C5.0648 23.794 5.93541 23.794 6.47237 23.257L16.5001 13.2293L26.5279 23.257C27.0648 23.794 27.9355 23.794 28.4724 23.257L29.4447 22.2848C29.9816 21.7478 29.9816 20.8772 29.4447 20.3402L17.9585 8.8541C17.153 8.04863 15.8471 8.04863 15.0417 8.8541L3.55556 20.3402C3.01859 20.8772 3.01859 21.7478 3.55556 22.2848L4.52783 23.257Z" fill="white"/></symbol>
	<symbol id="Facebook" viewBox="0 0 32 32" fill="none" xmlns="http://www.w3.org/2000/svg"><path d="M32 3.42857V28.5714C32 30.4643 30.4643 32 28.5714 32H22.4786V19.3429H26.8071L27.4286 14.5143H22.4786V11.4286C22.4786 10.0286 22.8643 9.07857 24.8714 9.07857H27.4286V4.76429C26.9857 4.70714 25.4714 4.57143 23.7 4.57143C20.0143 4.57143 17.4857 6.82143 17.4857 10.9571V14.5214H13.1429V19.35H17.4929V32H3.42857C1.53571 32 0 30.4643 0 28.5714V3.42857C0 1.53571 1.53571 0 3.42857 0H28.5714C30.4643 0 32 1.53571 32 3.42857Z" fill="white"/></symbol>
	<symbol id="Instagram" viewBox="0 0 32 32" fill="none" xmlns="http://www.w3.org/2000/svg"><path d="M16.0036 7.7956C11.4632 7.7956 7.801 11.4587 7.801 16C7.801 20.5413 11.4632 24.2044 16.0036 24.2044C20.5439 24.2044 24.2061 20.5413 24.2061 16C24.2061 11.4587 20.5439 7.7956 16.0036 7.7956ZM16.0036 21.3339C13.0695 21.3339 10.6708 18.9419 10.6708 16C10.6708 13.0581 13.0624 10.6661 16.0036 10.6661C18.9448 10.6661 21.3363 13.0581 21.3363 16C21.3363 18.9419 18.9376 21.3339 16.0036 21.3339V21.3339ZM26.4549 7.46C26.4549 8.52393 25.5982 9.37365 24.5417 9.37365C23.478 9.37365 22.6284 8.51679 22.6284 7.46C22.6284 6.40321 23.4851 5.54636 24.5417 5.54636C25.5982 5.54636 26.4549 6.40321 26.4549 7.46ZM31.8876 9.40221C31.7662 6.83878 31.1808 4.56811 29.3033 2.69731C27.4329 0.826509 25.1627 0.240991 22.5999 0.112462C19.9585 -0.0374873 12.0415 -0.0374873 9.40011 0.112462C6.8444 0.23385 4.57423 0.819368 2.69671 2.69017C0.819186 4.56097 0.240937 6.83164 0.112437 9.39507C-0.0374791 12.037 -0.0374791 19.9558 0.112437 22.5978C0.233798 25.1612 0.819186 27.4319 2.69671 29.3027C4.57423 31.1735 6.83726 31.759 9.40011 31.8875C12.0415 32.0375 19.9585 32.0375 22.5999 31.8875C25.1627 31.7661 27.4329 31.1806 29.3033 29.3027C31.1737 27.4319 31.7591 25.1612 31.8876 22.5978C32.0375 19.9558 32.0375 12.0442 31.8876 9.40221V9.40221ZM28.4752 25.4326C27.9184 26.8321 26.8404 27.9103 25.434 28.4744C23.3281 29.3098 18.3308 29.117 16.0036 29.117C13.6763 29.117 8.67195 29.3027 6.57312 28.4744C5.1739 27.9174 4.09593 26.8392 3.53196 25.4326C2.69671 23.3261 2.88946 18.3278 2.88946 16C2.88946 13.6722 2.70385 8.66674 3.53196 6.56744C4.08879 5.16791 5.16676 4.0897 6.57312 3.52561C8.67909 2.69017 13.6763 2.88296 16.0036 2.88296C18.3308 2.88296 23.3352 2.69731 25.434 3.52561C26.8332 4.08256 27.9112 5.16077 28.4752 6.56744C29.3104 8.67388 29.1177 13.6722 29.1177 16C29.1177 18.3278 29.3104 23.3333 28.4752 25.4326Z" fill="white"/></symbol>
	<symbol id="Youtube" viewBox="0 0 32 22" fill="none" xmlns="http://www.w3.org/2000/svg"><path d="M31.3313 3.44226C30.9633 2.08731 29.879 1.02019 28.5022 0.658052C26.0067 0 16 0 16 0C16 0 5.99337 0 3.49781 0.658052C2.12103 1.02025 1.0367 2.08731 0.668671 3.44226C0 5.89818 -2.27988e-08 11.0222 -2.27988e-08 11.0222C-2.27988e-08 11.0222 0 16.1463 0.668671 18.6022C1.0367 19.9572 2.12103 20.9798 3.49781 21.3419C5.99337 22 16 22 16 22C16 22 26.0066 22 28.5022 21.3419C29.879 20.9798 30.9633 19.9572 31.3313 18.6022C32 16.1463 32 11.0222 32 11.0222C32 11.0222 32 5.89818 31.3313 3.44226V3.44226ZM12.7273 15.6745V6.36997L21.0909 11.0223L12.7273 15.6745V15.6745Z" fill="white"/></symbol>
	<symbol id="LinkedinIn" viewBox="0 0 32 32" fill="none" xmlns="http://www.w3.org/2000/svg"><path d="M7.16269 32H0.528453V10.6357H7.16269V32V32ZM3.842 7.72143C1.72104 7.72143 0 5.96429 0 3.84286C0 1.72143 1.72104 0 3.842 0C5.96295 0 7.684 1.72143 7.684 3.84286C7.684 5.96429 5.96295 7.72143 3.842 7.72143ZM31.9929 32H25.3729V21.6C25.3729 19.1214 25.3229 15.9429 21.9237 15.9429C18.4744 15.9429 17.946 18.6357 17.946 21.4214V32H11.3189V10.6357H17.6818V13.55H17.7746C18.6601 11.8714 20.8239 10.1 24.0518 10.1C30.7646 10.1 32 14.5214 32 20.2643V32H31.9929Z" fill="white"/></symbol>
	<symbol id="Plane" viewBox="0 0 13 13" fill="none" xmlns="http://www.w3.org/2000/svg"><path d="M11.3125 0.664071C12.1094 0.195321 13.1172 0.875009 12.9766 1.81251L11.5937 10.8828C11.5234 11.2344 11.3359 11.5156 11.0312 11.7031C10.8437 11.7969 10.6562 11.8438 10.4687 11.8438C10.3281 11.8438 10.1875 11.8203 10.0469 11.75L7.42187 10.6719L6.39062 12.0547C5.75781 12.9219 4.375 12.4766 4.375 11.375V9.40626L1.67969 8.3047C0.812498 7.95313 0.742185 6.75782 1.5625 6.28907L11.3125 0.664071ZM5.5 11.375L6.34375 10.2266L5.5 9.87501V11.375ZM10.4687 10.7188L11.875 1.62501L2.125 7.25001L4.63281 8.3047L9.60156 3.9922C9.92969 3.68751 10.3984 4.10938 10.1641 4.48438L6.85937 9.21876L10.4687 10.7188Z" fill="white"/></symbol>
	<symbol id="Checked" viewBox="0 0 33 33" fill="none" xmlns="http://www.w3.org/2000/svg"><path fill-rule="evenodd" clip-rule="evenodd" d="M1.375 16.5C1.375 8.1467 8.1467 1.375 16.5 1.375C24.8533 1.375 31.625 8.1467 31.625 16.5C31.625 24.8533 24.8533 31.625 16.5 31.625C8.1467 31.625 1.375 24.8533 1.375 16.5ZM25.3217 13.3431C25.8576 12.8049 25.8556 11.9343 25.3175 11.3985L24.3431 10.4284C23.805 9.89255 22.9344 9.89442 22.3986 10.4326L14.4627 18.4027L9.89619 13.8997C9.35547 13.3666 8.48489 13.3727 7.95169 13.9135L6.98626 14.8925C6.45307 15.4331 6.45917 16.3038 6.99989 16.837L13.515 23.2614C14.0539 23.7929 14.9208 23.7889 15.4549 23.2526L25.3217 13.3431Z" fill="#22C55E"/></symbol>
	<symbol id="Mail" viewBox="0 0 28 30" fill="none" xmlns="http://www.w3.org/2000/svg"><path d="M4.66659 5.14331H23.3333C24.6166 5.14331 25.6666 6.25558 25.6666 7.61501V22.4452C25.6666 23.8047 24.6166 24.9169 23.3333 24.9169H4.66659C3.38325 24.9169 2.33325 23.8047 2.33325 22.4452V7.61501C2.33325 6.25558 3.38325 5.14331 4.66659 5.14331Z" stroke="#231F20" stroke-linecap="round" stroke-linejoin="round"/><path d="M25.6666 7.61499L13.9999 16.266L2.33325 7.61499" stroke="#231F20" stroke-linecap="round" stroke-linejoin="round"/></symbol>





</svg>