<svg width="32" height="32" viewBox="0 0 32 32" fill="none" xmlns="http://www.w3.org/2000/svg">
<circle cx="16" cy="16" r="16" fill="#2C52A3"/>
<path d="M23.6749 7.34238C24.3616 7.73094 25.0103 8.09782 25.7329 8.50653C25.5287 8.64268 25.3943 8.74278 25.2505 8.82662C22.3612 10.5108 19.4671 12.1868 16.5852 13.8835C16.2172 14.1001 15.9344 14.1262 15.5697 13.8865C14.9159 13.4566 14.2308 13.0745 13.4697 12.6193C13.7178 12.4594 13.8872 12.3407 14.0653 12.237C16.8878 10.5935 19.717 8.96139 22.5288 7.29995C22.9427 7.05541 23.2723 7.02679 23.6749 7.34238Z" fill="white"/>
<path d="M5.54227 10.6199C5.54295 10.372 5.54295 10.1774 5.54295 9.8811C5.77616 9.98554 5.93279 10.0402 6.07422 10.1213C8.9926 11.7955 11.9058 13.4788 14.8306 15.1416C15.2007 15.352 15.3671 15.5855 15.3469 16.0209C15.3123 16.7658 15.3373 17.5136 15.3373 18.3336C15.1419 18.258 14.9958 18.2205 14.8682 18.1495C11.9291 16.5143 8.9964 14.8674 6.04932 13.2466C5.64941 13.0267 5.47756 12.7863 5.51665 12.3265C5.56322 11.7787 5.53654 11.2247 5.54227 10.6199Z" fill="white"/>
<path d="M18.9963 25.3197C18.2616 25.7354 17.5663 26.1273 16.8051 26.5562C16.7907 26.2782 16.7746 26.1066 16.7739 25.9349C16.7587 22.624 16.7526 19.3131 16.7223 16.0023C16.7185 15.5942 16.8346 15.3525 17.1991 15.1612C17.8571 14.8159 18.4899 14.4226 19.2028 14.009C19.2306 14.2148 19.2608 14.3393 19.2623 14.4642C19.3013 17.8338 19.3365 21.2035 19.3757 24.5731C19.3792 24.8744 19.4082 25.1766 18.9963 25.3197Z" fill="white"/>
<path d="M26.2003 12.9786C24.3465 14.0621 22.5307 15.117 20.5787 16.2511C20.5787 15.1858 20.5732 14.2521 20.5873 13.3187C20.5887 13.2264 20.6899 13.1019 20.7786 13.0498C22.5915 11.9847 24.4093 10.9279 26.4151 9.75952C26.3505 10.9253 26.2945 11.9377 26.2003 12.9786Z" fill="white"/>
<path d="M12.8171 18.5674C13.6009 18.9612 14.3456 19.3595 15.0736 19.7862C15.1985 19.8594 15.3255 20.0529 15.3278 20.1928C15.3616 22.2761 15.3747 24.3596 15.3898 26.4431C15.39 26.4744 15.352 26.5061 15.2918 26.6C14.4945 26.1624 13.6879 25.7305 12.8965 25.2724C12.7917 25.2117 12.7082 25.0174 12.709 24.8855C12.7211 22.7841 12.7485 20.6828 12.8171 18.5674Z" fill="white"/>
<path d="M8.6257 9.96834C7.85634 9.52984 7.12475 9.11267 6.29443 8.63919C7.15802 8.12433 7.93726 7.65088 8.72914 7.19961C8.82152 7.14697 9.00649 7.17689 9.11021 7.2359C10.9008 8.25464 12.6854 9.28397 14.568 10.3665C13.715 10.8663 12.9545 11.3298 12.1718 11.7522C12.0455 11.8204 11.7956 11.75 11.6446 11.6673C10.6445 11.1197 9.65585 10.5513 8.6257 9.96834Z" fill="white"/>
</svg>
